<svg width="64" height="64" viewBox="0 0 64 64" fill="none" xmlns="http://www.w3.org/2000/svg">
<rect x="64" width="64" height="64" rx="8" transform="rotate(90 64 0)" fill="#F8F8F8"/>
<rect x="19" y="25" width="26" height="20" fill="#71D8A4"/>
<path d="M24 22.4V17.6C24 17.1757 24.1686 16.7687 24.4686 16.4686C24.7687 16.1686 25.1757 16 25.6 16H38.4C38.8243 16 39.2313 16.1686 39.5314 16.4686C39.8314 16.7687 40 17.1757 40 17.6V22.4H46.4C46.8243 22.4 47.2313 22.5686 47.5314 22.8686C47.8314 23.1687 48 23.5757 48 24V46.4C48 46.8243 47.8314 47.2313 47.5314 47.5314C47.2313 47.8314 46.8243 48 46.4 48H17.6C17.1757 48 16.7687 47.8314 16.4686 47.5314C16.1686 47.2313 16 46.8243 16 46.4V24C16 23.5757 16.1686 23.1687 16.4686 22.8686C16.7687 22.5686 17.1757 22.4 17.6 22.4H24ZM27.2 35.2H19.2V44.8H44.8V35.2H36.8V40H27.2V35.2ZM44.8 25.6H19.2V32H27.2V28.8H36.8V32H44.8V25.6ZM30.4 32V36.8H33.6V32H30.4ZM27.2 19.2V22.4H36.8V19.2H27.2Z" fill="#1F3042"/>
</svg>
