<svg width="64" height="64" viewBox="0 0 64 64" fill="none" xmlns="http://www.w3.org/2000/svg">
<rect x="64" width="64" height="64" rx="8" transform="rotate(90 64 0)" fill="#F8F8F8"/>
<path d="M20 25L32.5 18L45 25H20Z" fill="#71D8A4"/>
<path fill-rule="evenodd" clip-rule="evenodd" d="M31.1581 15.228C31.6763 14.924 32.3237 14.924 32.8419 15.228L49.2054 24.828C49.8361 25.198 50.1368 25.934 49.9405 26.6271C49.7441 27.3202 49.099 27.8 48.3635 27.8H45.909V43.8H48.3635C49.2672 43.8 49.9999 44.5163 49.9999 45.4C49.9999 46.2837 49.2672 47 48.3635 47H15.6365C14.7328 47 14.0001 46.2837 14.0001 45.4C14.0001 44.5163 14.7328 43.8 15.6365 43.8H18.091V27.8H15.6365C14.901 27.8 14.2559 27.3202 14.0595 26.6271C13.8632 25.934 14.1639 25.198 14.7946 24.828L31.1581 15.228ZM21.3637 27.8V43.8H26.2728V27.8H21.3637ZM29.5455 27.8V43.8H34.4545V27.8H29.5455ZM21.5442 24.6L32 18.4659L42.4558 24.6H21.5442ZM37.7272 27.8V43.8H42.6363V27.8H37.7272Z" fill="#1F3042"/>
</svg>
