<svg width="64" height="64" viewBox="0 0 64 64" fill="none" xmlns="http://www.w3.org/2000/svg">
<rect x="64" width="64" height="64" rx="8" transform="rotate(90 64 0)" fill="#F8F8F8"/>
<rect x="20" y="31" width="24" height="14" fill="#71D8A4"/>
<path d="M32 16C34.7052 16 37.2996 17.0647 39.2125 18.9598C41.1254 20.8549 42.2 23.4252 42.2 26.1053V27.7895H49V31.1579H47.0161L45.7292 46.4556C45.6938 46.8764 45.5001 47.2688 45.1865 47.5548C44.8729 47.8409 44.4623 47.9998 44.036 48H19.964C19.5377 47.9998 19.1271 47.8409 18.8135 47.5548C18.4999 47.2688 18.3062 46.8764 18.2708 46.4556L16.9822 31.1579H15V27.7895H21.8V26.1053C21.8 23.4252 22.8746 20.8549 24.7875 18.9598C26.7004 17.0647 29.2948 16 32 16ZM43.6042 31.1579H20.3941L21.528 44.6316H42.4703L43.6042 31.1579ZM33.7 34.5263V41.2632H30.3V34.5263H33.7ZM26.9 34.5263V41.2632H23.5V34.5263H26.9ZM40.5 34.5263V41.2632H37.1V34.5263H40.5ZM32 19.3684C30.2554 19.3684 28.5775 20.0327 27.3134 21.224C26.0493 22.4152 25.2957 24.0422 25.2085 25.7684L25.2 26.1053V27.7895H38.8V26.1053C38.8 24.3769 38.1295 22.7146 36.9271 21.4622C35.7247 20.2099 34.0824 19.4633 32.34 19.3768L32 19.3684Z" fill="#1F3042"/>
</svg>
