<svg width="64" height="64" viewBox="0 0 64 64" fill="none" xmlns="http://www.w3.org/2000/svg">
<rect x="64" width="64" height="64" rx="8" transform="rotate(90 64 0)" fill="#F8F8F8"/>
<rect x="19" y="22" width="26" height="26" fill="#71D8A4"/>
<path d="M39.7778 16V19.2H44.4444C45.3031 19.2 46 19.9168 46 20.8V46.4C46 47.2832 45.3031 48 44.4444 48H19.5556C18.6969 48 18 47.2832 18 46.4V20.8C18 19.9168 18.6969 19.2 19.5556 19.2H24.2222V16H39.7778ZM24.2222 22.4H21.1111V44.8H42.8889V22.4H39.7778V25.6H24.2222V22.4ZM33.5556 30.4V33.6H36.6667V36.8H33.554L33.5556 40H30.4444L30.4429 36.8H27.3333V33.6H30.4444V30.4H33.5556ZM36.6667 19.2H27.3333V22.4H36.6667V19.2Z" fill="#1F3042"/>
</svg>
