<svg width="64" height="64" viewBox="0 0 64 64" fill="none" xmlns="http://www.w3.org/2000/svg">
<rect x="64" width="64" height="64" rx="8" transform="rotate(90 64 0)" fill="#F8F8F8"/>
<circle cx="46.5" cy="21.5" r="2.5" fill="#71D8A4"/>
<path d="M16.8569 39.2944V26.6771C16.8569 24.3604 17.7825 22.1386 19.43 20.5005C21.0776 18.8624 23.3122 17.9421 25.6422 17.9421C27.9722 17.9421 30.2067 18.8624 31.8543 20.5005C33.5019 22.1386 34.4274 24.3604 34.4274 26.6771V40.265C34.4274 41.552 34.9417 42.7863 35.857 43.6964C36.7723 44.6065 38.0137 45.1178 39.3082 45.1178C40.6026 45.1178 41.844 44.6065 42.7594 43.6964C43.6747 42.7863 44.1889 41.552 44.1889 40.265V27.3177C42.8857 26.8598 41.7874 25.9585 41.0879 24.7732C40.3885 23.588 40.133 22.195 40.3667 20.8406C40.6003 19.4861 41.308 18.2574 42.3647 17.3716C43.4214 16.4858 44.759 16 46.1412 16C47.5233 16 48.8609 16.4858 49.9176 17.3716C50.9743 18.2574 51.682 19.4861 51.9157 20.8406C52.1493 22.195 51.8938 23.588 51.1944 24.7732C50.495 25.9585 49.3966 26.8598 48.0935 27.3177V40.265C48.0935 42.5816 47.1679 44.8034 45.5203 46.4416C43.8727 48.0797 41.6382 49 39.3082 49C36.9782 49 34.7436 48.0797 33.096 46.4416C31.4485 44.8034 30.5229 42.5816 30.5229 40.265V26.6771C30.5229 25.3901 30.0087 24.1557 29.0933 23.2457C28.178 22.3356 26.9366 21.8243 25.6422 21.8243C24.3477 21.8243 23.1063 22.3356 22.191 23.2457C21.2757 24.1557 20.7614 25.3901 20.7614 26.6771V39.2944H26.6183L18.8091 49L11 39.2944H16.8569ZM46.1412 23.7654C46.659 23.7654 47.1555 23.5609 47.5216 23.1969C47.8878 22.8329 48.0935 22.3391 48.0935 21.8243C48.0935 21.3095 47.8878 20.8158 47.5216 20.4517C47.1555 20.0877 46.659 19.8832 46.1412 19.8832C45.6234 19.8832 45.1268 20.0877 44.7607 20.4517C44.3946 20.8158 44.1889 21.3095 44.1889 21.8243C44.1889 22.3391 44.3946 22.8329 44.7607 23.1969C45.1268 23.5609 45.6234 23.7654 46.1412 23.7654Z" fill="#1F3042"/>
</svg>
