<svg xmlns="http://www.w3.org/2000/svg" xmlns:xlink="http://www.w3.org/1999/xlink" width="989.67" height="218.59" viewBox="0 0 989.67 218.59"><defs><style>.a{fill:#1f3042;}.b{fill:#3bb979;}.c{fill:url(#a);}.d{fill:url(#b);}</style><linearGradient id="a" x1="43.58" y1="142.39" x2="136.05" y2="142.39" gradientUnits="userSpaceOnUse"><stop offset="0" stop-color="#71d8a4"/><stop offset="1" stop-color="#71d8a4"/></linearGradient><linearGradient id="b" x1="-7053.63" y1="141.69" x2="-6961.17" y2="141.69" gradientTransform="matrix(-1, 0, 0, 1, -6804.38, 0)" xlink:href="#a"/></defs><path class="a" d="M463.75,75.86v88.26h0a20.69,20.69,0,0,0,20.69-20.69V55.17A20.69,20.69,0,0,0,463.75,75.86Z"/><path class="a" d="M559.76,75.86h33.79a20.68,20.68,0,0,0,20.68-20.69H559.76a54.48,54.48,0,0,0-54.48,54.48h0a54.48,54.48,0,0,0,54.48,54.47h54.47a20.69,20.69,0,0,0-20.68-20.69H559.76A33.78,33.78,0,0,1,526,109.65h0A33.79,33.79,0,0,1,559.76,75.86Z"/><path class="a" d="M388.69,55.17H334.21v109h54.48a54.47,54.47,0,0,0,54.47-54.47h0A54.48,54.48,0,0,0,388.69,55.17Zm33.79,54.48a33.78,33.78,0,0,1-33.79,33.78H354.9V75.86h33.79a33.79,33.79,0,0,1,33.79,33.79Z"/><path class="a" d="M621.29,109.65h0a54.47,54.47,0,0,0,54.47,54.47h54.48a20.69,20.69,0,0,0-20.69-20.69H675.76A33.78,33.78,0,0,1,642,109.65h0a33.79,33.79,0,0,1,33.79-33.79h33.79a20.69,20.69,0,0,0,20.69-20.69H675.76A54.48,54.48,0,0,0,621.29,109.65Z"/><path class="a" d="M662.65,109.65h0A10.34,10.34,0,0,0,673,120h36.56A20.69,20.69,0,0,0,730.24,99.3H673A10.34,10.34,0,0,0,662.65,109.65Z"/><path class="a" d="M839.35,75.86v33.79a33.78,33.78,0,0,1-33.79,33.78h0a33.78,33.78,0,0,1-33.79-33.78V75.86a20.69,20.69,0,0,0-20.69-20.69v54.48a54.48,54.48,0,0,0,54.48,54.47h0A54.47,54.47,0,0,0,860,109.65V55.17h0A20.68,20.68,0,0,0,839.35,75.86Z"/><path class="a" d="M957.26,99.3H913.12a11.71,11.71,0,0,1-11.71-11.5,12,12,0,0,1,12-11.94H969a20.69,20.69,0,0,0,20.69-20.69h-76c-17.65,0-32.49,13.89-33,31.54A32.38,32.38,0,0,0,912.19,120c.31,0,.62,0,.94,0h44.6A11.71,11.71,0,0,1,969,131.62a12,12,0,0,1-12,11.78H901.44a20.72,20.72,0,0,0-20.72,20.72h76c17.66,0,32.5-13.89,33-31.54a32.43,32.43,0,0,0-32.4-33.28Z"/><path class="b" d="M18.05.7h0L83.53,66.18a30.86,30.86,0,0,1,.92,42.43l.07-.06L61.63,131.44h0L18.05,87.86A61.63,61.63,0,0,1,18.05.7Z"/><path class="c" d="M127,109.68l-43.5-43.5a30.87,30.87,0,0,1,.91,42.43l0,0L61.63,131.44a61.62,61.62,0,0,0,0,87.15h0L127,153.19A30.78,30.78,0,0,0,127,109.68Z"/><path class="b" d="M274.78,0h0L209.3,65.48a30.9,30.9,0,0,0-.92,42.44l-.06-.07,22.88,22.89h0l43.58-43.58A61.63,61.63,0,0,0,274.78,0Z"/><path class="d" d="M165.8,109l43.5-43.51a30.9,30.9,0,0,0-.92,42.44l0,0,22.85,22.85a61.65,61.65,0,0,1,0,87.16h0L165.8,152.49A30.75,30.75,0,0,1,165.8,109Z"/></svg>