<svg xmlns="http://www.w3.org/2000/svg" viewBox="0 0 295 294.74"><defs><style>.a{fill:#fff;}.b{fill:#71d8a4;}.c{fill:none;}</style></defs><path class="a" d="M211.3,183l-63-30.22a1.66,1.66,0,0,0-.75-.18,1.7,1.7,0,0,0-.76.18L83.81,183a1.74,1.74,0,0,0-1,1.57v78.19a1.76,1.76,0,0,0,1,1.58l63,30.22a1.81,1.81,0,0,0,1.51,0l63-30.22a1.76,1.76,0,0,0,1-1.58V184.58A1.72,1.72,0,0,0,211.3,183Zm-63.74,108L86.32,261.67v-76l61.24-29.38,61.24,29.38v76Z"/><path class="b" d="M192.85,194.62l-44.54-21.37a1.79,1.79,0,0,0-.75-.17,1.83,1.83,0,0,0-.76.17l-44.53,21.37a1.75,1.75,0,0,0-1,1.58v55a1.75,1.75,0,0,0,1,1.57L146.8,274.1a1.81,1.81,0,0,0,1.51,0l44.54-21.37a1.75,1.75,0,0,0,1-1.57v-55A1.76,1.76,0,0,0,192.85,194.62Zm-47,75.13-41-19.69V199l41,19.69Zm1.75-54.13-40.5-19.42,40.5-19.43,40.49,19.43Zm1.75,54.13V218.66l41-19.69v51.09Z"/><rect class="a" x="20.85" y="105.86" width="109.16" height="2.74"/><rect class="b" x="20.85" y="125.35" width="56.32" height="2.74"/><rect class="b" x="20.85" y="86.38" width="56.32" height="2.74"/><rect class="a" x="20.85" y="66.89" width="109.16" height="2.74"/><rect class="c" x="17.48" y="17.48" width="6.74" height="6.74" rx="3.37"/><path class="c" d="M40.34,17.48A3.37,3.37,0,0,0,37,20.85h0a3.37,3.37,0,1,0,6.74,0h0A3.37,3.37,0,0,0,40.34,17.48Z"/><rect class="c" x="56.45" y="17.48" width="6.74" height="6.74" rx="3.37"/><path class="a" d="M283.89,0H11.11A11.13,11.13,0,0,0,0,11.11V231.68H86.32v-2.75H2.74V41.71H292.26V228.93H211v2.75h84V11.11A11.13,11.13,0,0,0,283.89,0Zm8.37,39H2.74V11A8.23,8.23,0,0,1,11,2.77H283.89a8.37,8.37,0,0,1,8.37,8.36Z"/><rect class="b" x="17.48" y="17.48" width="6.74" height="6.74" rx="3.37"/><path class="b" d="M40.34,17.48A3.37,3.37,0,0,0,37,20.85h0a3.37,3.37,0,1,0,6.74,0h0A3.37,3.37,0,0,0,40.34,17.48Z"/><rect class="b" x="56.45" y="17.48" width="6.74" height="6.74" rx="3.37"/><path class="a" d="M199.23,102.08h9.67a1.19,1.19,0,0,0,1.2-1.09A25.33,25.33,0,0,1,233,78.08a1.21,1.21,0,0,0,1.1-1.2V67.21A1.21,1.21,0,0,0,232.9,66h-.08A37.37,37.37,0,0,0,198,100.8a1.2,1.2,0,0,0,1.12,1.28Zm11.36-23.51a34.87,34.87,0,0,1,21.11-10V75.8a27.73,27.73,0,0,0-23.88,23.87h-7.28A35,35,0,0,1,210.59,78.57Z"/><path class="b" d="M271.4,104.5h-9.67a1.19,1.19,0,0,0-1.2,1.09,25.32,25.32,0,0,1-50.43,0,1.19,1.19,0,0,0-1.2-1.09h-9.67a1.2,1.2,0,0,0-1.21,1.2.22.22,0,0,0,0,.08,37.37,37.37,0,0,0,74.57,0,1.21,1.21,0,0,0-1.12-1.28Zm-12.15,24.27a35,35,0,0,1-58.71-21.86h7.28a27.73,27.73,0,0,0,55,0h7.28A34.85,34.85,0,0,1,259.25,128.77Z"/><path class="a" d="M237.62,78.08A25.33,25.33,0,0,1,260.53,101a1.19,1.19,0,0,0,1.2,1.09h9.67a1.2,1.2,0,0,0,1.2-1.2v-.08A37.38,37.38,0,0,0,237.8,66a1.21,1.21,0,0,0-1.28,1.13v9.75A1.21,1.21,0,0,0,237.62,78.08Zm1.31-9.56a35,35,0,0,1,31.16,31.15h-7.28A27.75,27.75,0,0,0,238.93,75.8Z"/></svg>